<?xml version="1.0" encoding="UTF-8" standalone="no"?>
<!-- Created with Inkscape (http://www.inkscape.org/) -->

<svg
   version="1.2"
   width="340"
   height="200.00002"
   id="svg2"
   inkscape:version="1.2.2 (b0a8486541, 2022-12-01)"
   sodipodi:docname="manjarolinux-text-dark-rounded.svg"
   xml:space="preserve"
   xmlns:inkscape="http://www.inkscape.org/namespaces/inkscape"
   xmlns:sodipodi="http://sodipodi.sourceforge.net/DTD/sodipodi-0.dtd"
   xmlns:xlink="http://www.w3.org/1999/xlink"
   xmlns="http://www.w3.org/2000/svg"
   xmlns:svg="http://www.w3.org/2000/svg"
   xmlns:rdf="http://www.w3.org/1999/02/22-rdf-syntax-ns#"
   xmlns:cc="http://creativecommons.org/ns#"
   xmlns:dc="http://purl.org/dc/elements/1.1/"><sodipodi:namedview
     pagecolor="#585858"
     bordercolor="#424242"
     borderopacity="1"
     objecttolerance="10"
     gridtolerance="10"
     guidetolerance="10"
     inkscape:pageopacity="0"
     inkscape:pageshadow="2"
     inkscape:window-width="1920"
     inkscape:window-height="1044"
     id="namedview15"
     showgrid="false"
     inkscape:showpageshadow="false"
     fit-margin-top="0"
     fit-margin-left="0"
     fit-margin-right="0"
     fit-margin-bottom="0"
     inkscape:zoom="1.5099097"
     inkscape:cx="284.12294"
     inkscape:cy="186.10384"
     inkscape:window-x="0"
     inkscape:window-y="36"
     inkscape:window-maximized="1"
     inkscape:current-layer="svg2"
     inkscape:pagecheckerboard="0"
     showguides="true"
     inkscape:guide-bbox="true"
     inkscape:deskcolor="#585858"><inkscape:grid
       type="xygrid"
       id="grid837"
       originx="141.00642"
       originy="184.06879" /></sodipodi:namedview><defs
     id="defs4"><linearGradient
       inkscape:collect="always"
       xlink:href="#linearGradient966"
       id="linearGradient640"
       gradientUnits="userSpaceOnUse"
       gradientTransform="matrix(1.0336166,0,0,1.0336166,-139.08704,149.12262)"
       x1="87.997589"
       y1="192.45601"
       x2="284.63544"
       y2="59.889709" /><linearGradient
       inkscape:collect="always"
       id="linearGradient966"><stop
         style="stop-color:#2d85c6;stop-opacity:1;"
         offset="0"
         id="stop962" /><stop
         style="stop-color:#04bacc;stop-opacity:1;"
         offset="1"
         id="stop964" /></linearGradient></defs><metadata
     id="metadata7"><rdf:RDF><cc:Work
         rdf:about=""><dc:format>image/svg+xml</dc:format><dc:type
           rdf:resource="http://purl.org/dc/dcmitype/StillImage" /></cc:Work></rdf:RDF></metadata><g
     id="g511"><rect
       style="fill:none;stroke-width:0.752768"
       id="rect289"
       width="340"
       height="200.00002"
       x="2.1664619e-07"
       y="2.2922136e-07"
       rx="1.1333333" /><g
       id="g495"
       transform="matrix(0.52658014,0,0,0.52658014,25.838581,-18.162633)"><text
         xml:space="preserve"
         style="font-weight:bold;font-size:92.6147px;font-family:'Ubuntu Mono';-inkscape-font-specification:'Ubuntu Mono Bold';fill:#ffffff;stroke:none;stroke-width:20.7836;stroke-linecap:round;stroke-linejoin:round"
         x="192.1586"
         y="306.48749"
         id="text638"><tspan
           sodipodi:role="line"
           id="tspan636"
           style="font-style:normal;font-variant:normal;font-weight:600;font-stretch:normal;font-family:'Lexend Deca';-inkscape-font-specification:'Lexend Deca Semi-Bold';fill:#ffffff;stroke:none;stroke-width:20.7836"
           x="192.1586"
           y="306.48749">BigLinux</tspan></text><path
         id="path3773-7"
         style="fill:url(#linearGradient640);fill-opacity:1;stroke-width:0.384941"
         class="cls-2"
         d="m 115.69677,210.81956 c -2.17131,-0.004 -4.46634,0.17817 -6.91064,0.59384 -39.109978,6.52464 -37.42048,52.00328 -37.42048,52.00328 0,0 -0.03969,20.13766 18.783092,30.31922 15.643998,9.00772 24.635468,-0.73836 26.175348,-2.27366 1.54003,-1.53609 33.32568,-41.329 28.21361,34.262 0,0 11.19409,-12.17848 11.89482,-41.18371 0.70075,-29.00544 -17.93191,-30.76739 -17.93191,-30.76739 0,0 -8.24322,-2.06719 -24.60716,15.61331 -16.363756,17.68032 -17.50611,16.8901 -17.50611,16.8901 0,0 -4.620552,3.25607 -5.163341,-4.93945 -0.542385,-8.19533 -2.317006,-33.0353 22.669451,-46.48146 24.98664,-13.44595 37.11802,19.48859 37.11802,19.48859 0,0 -2.74597,-43.46727 -35.3147,-43.52447 z m -70.080664,18.79417 a 13.280492,17.711172 77.92 0 0 -4.984202,0.51467 13.280492,17.711172 77.92 0 0 -14.538048,16.69966 13.280492,17.711172 77.92 0 0 20.093534,9.27396 13.280492,17.711172 77.92 0 0 14.538047,-16.68857 13.280492,17.711172 77.92 0 0 -15.109331,-9.80031 z m -82.781942,5.55527 c 0,0 -11.183006,12.19353 -11.883541,41.195 -0.700748,29.00147 17.931889,30.78975 17.931889,30.78975 0,0 8.231966,2.06719 24.5959032,-15.61332 16.3639447,-17.68031 17.5173918,-16.89009 17.5173918,-16.89009 0,0 4.620549,-3.25607 5.163338,4.93945 0.542385,8.19534 2.309692,33.0355 -22.6807298,46.48146 -24.9903952,13.44596 -37.1180182,-19.48858 -37.1180182,-19.48858 0,0 3.114946,49.45187 42.2366135,42.93082 39.1216675,-6.52087 37.4092015,-52.00328 37.4092015,-52.00328 0,0 0.03968,-20.11826 -18.794159,-30.31922 -15.6442091,-9.00772 -24.6354936,0.72648 -26.1753487,2.26237 -1.5400483,1.5361 -33.3106433,41.3298 -28.2025403,-34.28436 z m 87.474948,24.24889 a 13.546102,13.546102 0 0 0 -13.115607,17.69653 c 0,0 7.922188,31.36441 50.312009,32.36901 0,0 -24.486425,-17.53402 -23.912772,-37.5547 a 13.546102,13.546102 0 0 0 -13.28363,-12.51084 z" /></g></g></svg>
